{"title":"The.Road.Home.1999.DVDRip.XViD-Eselworx","uid":5383524,"size":734098179,"categoryP":"video","categoryS":"movies","magnet":"?xt=urn:btih:02d2963c92cf03ba85727abcfdf4f0d5c9a1680f&amp;dn=The.Road.Home.1999.DVDRip.XViD-Eselworx&amp;tr=udp%3A%2F%2Ftracker.openbittorrent.com%3A80&amp;tr=udp%3A%2F%2Fopen.demonii.com%3A1337&amp;tr=udp%3A%2F%2Ftracker.coppersurfer.tk%3A6969&amp;tr=udp%3A%2F%2Fexodus.desync.com%3A6969","seeders":4,"leechers":1,"uploader":"raymondhome","files":-1,"time":1266816994,"description":"Love for All and Sharing is the first step to solving all the problems of humanity.\n\nWebsites I want to share.\n\n    &lt;a href=&quot;\nhttp://www.shareintl.org/&quot; rel=&quot;nofollow&quot; target=&quot;_NEW&quot;&gt;\nhttp://www.shareintl.org/&lt;/a&gt;\n\n    &lt;a href=&quot;\nhttp://www.lightmiddleway.com&quot; rel=&quot;nofollow&quot; target=&quot;_NEW&quot;&gt;\nhttp://www.lightmiddleway.com&lt;/a&gt;\n\n\nThank you very much\n\nNo credit for me...credit to EVERYONE for sharing\n &lt;a href=&quot;\nhttp://thepiratebay.se/user/raymondhome/&quot; rel=&quot;nofollow&quot; target=&quot;_NEW&quot;&gt;\nhttp://thepiratebay.se/user/raymondhome/&lt;/a&gt;\n\nPLOT\nPrompted by the death of his father and the grief of his mother, a man recalls the story of how they met in flashback.\nDIRECTED: Yimou Zhang (Jet Li's Hero, Curse of the Golden Flower, House of Flying Daggers)\nCAST: Ziyi Zhang (Jet Li's Hero, House of Flying Daggers, Crouching Tiger, Hidden Dragon)\n\nIMDb Rating : 7.7/10 (5,905 votes) http://www.imdb.com/title/tt0235060/\n\n2000 Berlin International Film Festival Silver Berlin Bear Award\n\nLANGUAGE: Mandarin\nSUBTITLES: English\n\nVideo #0\nID : 0\nFormat : MPEG-4 Visual\nFormat settings, BVOP : No\nFormat settings, QPel : No\nFormat settings, GMC : No warppoints\nFormat settings, Matrix : Default (H.263)\nCodec ID : XVID\nCodec ID/Hint : XviD\nDuration : 1h 25mn\nBit rate : 1 014 Kbps\nWidth : 656 pixels\nHeight : 272 pixels\nDisplay aspect ratio : 2.40:1\nFrame rate : 25.000 fps\nResolution : 24 bits\nColorimetry : 4:2:0\nScan type : Progressive\nBits/(Pixel*Frame) : 0.227\nStream size : 622 MiB (89%)\n\nAudio #1\nID : 1\nFormat : MPEG Audio\nFormat version : Version 1\nFormat profile : Layer 3\nCodec ID : 55\nCodec ID/Hint : MP3\nDuration : 1h 25mn\nBit rate mode : Variable\nBit rate : 115 Kbps\nNominal bit rate : 128 Kbps\nChannel(s) : 2 channels\nSampling rate : 48.0 KHz\nResolution : 16 bits\nStream size : 70.4 MiB (10%)\nAlignment : Aligned on interleaves\nInterleave, duration : 24 ms (0.60 video frame)\nInterleave, preload duration : 153 ms\nWriting library : LAME3.92\nEncoding settings : -m j -V 0 -q 2 -lowpass 15.3 --abr 128\n\ncredit Eselworx &amp; 34dshot &amp; to all the people who made it possible for me to share this with everyone\n\n*****help what we can with haiti...the world is ONE big family*****","torrent":{"xt":"urn:btih:02d2963c92cf03ba85727abcfdf4f0d5c9a1680f","amp;dn":"The.Road.Home.1999.DVDRip.XViD-Eselworx","amp;tr":["udp%3A%2F%2Ftracker.openbittorrent.com%3A80","udp%3A%2F%2Fopen.demonii.com%3A1337","udp%3A%2F%2Ftracker.coppersurfer.tk%3A6969","udp%3A%2F%2Fexodus.desync.com%3A6969"],"infoHash":"02d2963c92cf03ba85727abcfdf4f0d5c9a1680f","infoHashBuffer":{"type":"Buffer","data":[2,210,150,60,146,207,3,186,133,114,122,188,253,244,240,213,201,161,104,15]},"announce":[],"urlList":[]}}